<svg xmlns="http://www.w3.org/2000/svg" xmlns:xlink="http://www.w3.org/1999/xlink" width="1366" zoomAndPan="magnify" viewBox="0 0 1024.5 576" height="768" preserveAspectRatio="xMidYMid meet" version="1.0"><defs><g/><clipPath id="ed277fa58a"><rect x="0" width="389" y="0" height="112"/></clipPath></defs><g transform="matrix(1, 0, 0, 1, 318, 216)"><g clip-path="url(#ed277fa58a)"><g fill="#000000" fill-opacity="1"><g transform="translate(0.866493, 83.483653)"><g><path d="M 30.03125 0 L 30.03125 -76.875 C 26.144531 -76.875 22.675781 -76.707031 19.625 -76.375 C 16.582031 -76.050781 13.796875 -75.359375 11.265625 -74.296875 C 8.742188 -73.234375 6.269531 -71.53125 3.84375 -69.1875 L 3.84375 -77.765625 L 64.671875 -77.765625 L 64.671875 -69.1875 C 62.179688 -71.53125 59.671875 -73.234375 57.140625 -74.296875 C 54.609375 -75.359375 51.835938 -76.050781 48.828125 -76.375 C 45.828125 -76.707031 42.382812 -76.875 38.5 -76.875 L 38.5 0 Z M 30.03125 0 "/></g></g></g><g fill="#000000" fill-opacity="1"><g transform="translate(69.384338, 83.483653)"><g><path d="M 3.84375 0 L 3.84375 -77.65625 L 12.09375 -77.65625 L 12.09375 0 Z M 3.84375 0 "/></g></g></g><g fill="#000000" fill-opacity="1"><g transform="translate(85.331507, 83.483653)"><g><path d="M 32.890625 -76.546875 C 38.015625 -78.015625 43.109375 -78.378906 48.171875 -77.640625 C 53.234375 -76.910156 57.941406 -75.257812 62.296875 -72.6875 C 66.660156 -70.125 70.421875 -66.789062 73.578125 -62.6875 C 76.734375 -58.582031 78.96875 -53.925781 80.28125 -48.71875 C 81.75 -43.59375 82.132812 -38.5 81.4375 -33.4375 C 80.75 -28.375 79.140625 -23.640625 76.609375 -19.234375 C 74.078125 -14.835938 70.773438 -11.046875 66.703125 -7.859375 C 62.628906 -4.671875 57.992188 -2.378906 52.796875 -0.984375 C 47.660156 0.472656 42.5625 0.851562 37.5 0.15625 C 32.445312 -0.53125 27.738281 -2.15625 23.375 -4.71875 C 19.007812 -7.289062 15.25 -10.609375 12.09375 -14.671875 C 8.945312 -18.742188 6.640625 -23.421875 5.171875 -28.703125 C 3.773438 -33.910156 3.460938 -39.0625 4.234375 -44.15625 C 5.003906 -49.25 6.65625 -53.976562 9.1875 -58.34375 C 11.71875 -62.707031 15 -66.484375 19.03125 -69.671875 C 23.0625 -72.859375 27.679688 -75.148438 32.890625 -76.546875 Z M 33 -75.671875 C 28.300781 -74.492188 24.46875 -72.3125 21.5 -69.125 C 18.53125 -65.9375 16.3125 -62.175781 14.84375 -57.84375 C 13.375 -53.519531 12.601562 -49.007812 12.53125 -44.3125 C 12.457031 -39.625 12.972656 -35.191406 14.078125 -31.015625 C 15.179688 -26.835938 16.921875 -22.769531 19.296875 -18.8125 C 21.679688 -14.851562 24.578125 -11.347656 27.984375 -8.296875 C 31.398438 -5.253906 35.195312 -3.09375 39.375 -1.8125 C 43.550781 -0.53125 47.953125 -0.515625 52.578125 -1.765625 C 57.265625 -3.003906 61.109375 -5.21875 64.109375 -8.40625 C 67.117188 -11.601562 69.359375 -15.363281 70.828125 -19.6875 C 72.296875 -24.007812 73.101562 -28.515625 73.25 -33.203125 C 73.394531 -37.898438 72.914062 -42.335938 71.8125 -46.515625 C 70.71875 -50.773438 68.957031 -54.898438 66.53125 -58.890625 C 64.113281 -62.890625 61.203125 -66.390625 57.796875 -69.390625 C 54.390625 -72.398438 50.59375 -74.53125 46.40625 -75.78125 C 42.226562 -77.03125 37.757812 -76.992188 33 -75.671875 Z M 33 -75.671875 "/></g></g></g><g fill="#000000" fill-opacity="1"><g transform="translate(171.006311, 83.483653)"><g><path d="M 34.96875 -42.890625 C 38.78125 -42.015625 41.859375 -40.328125 44.203125 -37.828125 C 46.554688 -35.335938 48.519531 -32.40625 50.09375 -29.03125 C 51.675781 -25.664062 53.195312 -22.257812 54.65625 -18.8125 C 56.050781 -15.65625 57.484375 -12.703125 58.953125 -9.953125 C 60.421875 -7.203125 62.070312 -5 63.90625 -3.34375 C 65.738281 -1.695312 67.863281 -0.875 70.28125 -0.875 L 70.28125 0 C 64.5625 0 60.03125 -0.769531 56.6875 -2.3125 C 53.351562 -3.851562 50.84375 -5.882812 49.15625 -8.40625 C 47.476562 -10.9375 46.269531 -13.707031 45.53125 -16.71875 C 44.800781 -19.726562 44.234375 -22.734375 43.828125 -25.734375 C 43.421875 -28.742188 42.832031 -31.507812 42.0625 -34.03125 C 41.300781 -36.5625 40.019531 -38.597656 38.21875 -40.140625 C 36.425781 -41.679688 33.769531 -42.453125 30.25 -42.453125 C 24.675781 -42.453125 20.203125 -45.09375 16.828125 -50.375 C 14.921875 -53.457031 13.488281 -57.234375 12.53125 -61.703125 L 12.53125 0 L 3.84375 0 L 3.84375 -77.765625 L 23.203125 -77.765625 C 28.628906 -77.765625 33.5625 -77.175781 38 -76 C 42.4375 -74.820312 45.992188 -72.96875 48.671875 -70.4375 C 51.347656 -67.914062 52.6875 -64.5625 52.6875 -60.375 C 52.6875 -56.789062 51.878906 -53.769531 50.265625 -51.3125 C 48.648438 -48.851562 46.503906 -46.941406 43.828125 -45.578125 C 41.148438 -44.222656 38.195312 -43.328125 34.96875 -42.890625 Z M 44 -60.375 C 44 -64.5625 43.003906 -67.863281 41.015625 -70.28125 C 39.035156 -72.695312 36.46875 -74.398438 33.3125 -75.390625 C 30.164062 -76.378906 26.796875 -76.875 23.203125 -76.875 L 12.53125 -76.875 L 12.53125 -70.0625 C 12.53125 -66.03125 12.988281 -62.4375 13.90625 -59.28125 C 14.820312 -56.125 16.050781 -53.335938 17.59375 -50.921875 C 19.132812 -48.648438 21.003906 -46.796875 23.203125 -45.359375 C 25.398438 -43.929688 27.75 -43.21875 30.25 -43.21875 L 31.015625 -43.21875 C 34.535156 -43.4375 37.578125 -44.898438 40.140625 -47.609375 C 42.710938 -50.328125 44 -54.582031 44 -60.375 Z M 44 -60.375 "/></g></g></g><g fill="#000000" fill-opacity="1"><g transform="translate(245.133156, 83.483653)"><g><path d="M 34.96875 -42.890625 C 38.78125 -42.015625 41.859375 -40.328125 44.203125 -37.828125 C 46.554688 -35.335938 48.519531 -32.40625 50.09375 -29.03125 C 51.675781 -25.664062 53.195312 -22.257812 54.65625 -18.8125 C 56.050781 -15.65625 57.484375 -12.703125 58.953125 -9.953125 C 60.421875 -7.203125 62.070312 -5 63.90625 -3.34375 C 65.738281 -1.695312 67.863281 -0.875 70.28125 -0.875 L 70.28125 0 C 64.5625 0 60.03125 -0.769531 56.6875 -2.3125 C 53.351562 -3.851562 50.84375 -5.882812 49.15625 -8.40625 C 47.476562 -10.9375 46.269531 -13.707031 45.53125 -16.71875 C 44.800781 -19.726562 44.234375 -22.734375 43.828125 -25.734375 C 43.421875 -28.742188 42.832031 -31.507812 42.0625 -34.03125 C 41.300781 -36.5625 40.019531 -38.597656 38.21875 -40.140625 C 36.425781 -41.679688 33.769531 -42.453125 30.25 -42.453125 C 24.675781 -42.453125 20.203125 -45.09375 16.828125 -50.375 C 14.921875 -53.457031 13.488281 -57.234375 12.53125 -61.703125 L 12.53125 0 L 3.84375 0 L 3.84375 -77.765625 L 23.203125 -77.765625 C 28.628906 -77.765625 33.5625 -77.175781 38 -76 C 42.4375 -74.820312 45.992188 -72.96875 48.671875 -70.4375 C 51.347656 -67.914062 52.6875 -64.5625 52.6875 -60.375 C 52.6875 -56.789062 51.878906 -53.769531 50.265625 -51.3125 C 48.648438 -48.851562 46.503906 -46.941406 43.828125 -45.578125 C 41.148438 -44.222656 38.195312 -43.328125 34.96875 -42.890625 Z M 44 -60.375 C 44 -64.5625 43.003906 -67.863281 41.015625 -70.28125 C 39.035156 -72.695312 36.46875 -74.398438 33.3125 -75.390625 C 30.164062 -76.378906 26.796875 -76.875 23.203125 -76.875 L 12.53125 -76.875 L 12.53125 -70.0625 C 12.53125 -66.03125 12.988281 -62.4375 13.90625 -59.28125 C 14.820312 -56.125 16.050781 -53.335938 17.59375 -50.921875 C 19.132812 -48.648438 21.003906 -46.796875 23.203125 -45.359375 C 25.398438 -43.929688 27.75 -43.21875 30.25 -43.21875 L 31.015625 -43.21875 C 34.535156 -43.4375 37.578125 -44.898438 40.140625 -47.609375 C 42.710938 -50.328125 44 -54.582031 44 -60.375 Z M 44 -60.375 "/></g></g></g><g fill="#000000" fill-opacity="1"><g transform="translate(302.762005, 83.483653)"><g><path d="M 32.890625 -76.546875 C 38.015625 -78.015625 43.109375 -78.378906 48.171875 -77.640625 C 53.234375 -76.910156 57.941406 -75.257812 62.296875 -72.6875 C 66.660156 -70.125 70.421875 -66.789062 73.578125 -62.6875 C 76.734375 -58.582031 78.96875 -53.925781 80.28125 -48.71875 C 81.75 -43.59375 82.132812 -38.5 81.4375 -33.4375 C 80.75 -28.375 79.140625 -23.640625 76.609375 -19.234375 C 74.078125 -14.835938 70.773438 -11.046875 66.703125 -7.859375 C 62.628906 -4.671875 57.992188 -2.378906 52.796875 -0.984375 C 47.660156 0.472656 42.5625 0.851562 37.5 0.15625 C 32.445312 -0.53125 27.738281 -2.15625 23.375 -4.71875 C 19.007812 -7.289062 15.25 -10.609375 12.09375 -14.671875 C 8.945312 -18.742188 6.640625 -23.421875 5.171875 -28.703125 C 3.773438 -33.910156 3.460938 -39.0625 4.234375 -44.15625 C 5.003906 -49.25 6.65625 -53.976562 9.1875 -58.34375 C 11.71875 -62.707031 15 -66.484375 19.03125 -69.671875 C 23.0625 -72.859375 27.679688 -75.148438 32.890625 -76.546875 Z M 33 -75.671875 C 28.300781 -74.492188 24.46875 -72.3125 21.5 -69.125 C 18.53125 -65.9375 16.3125 -62.175781 14.84375 -57.84375 C 13.375 -53.519531 12.601562 -49.007812 12.53125 -44.3125 C 12.457031 -39.625 12.972656 -35.191406 14.078125 -31.015625 C 15.179688 -26.835938 16.921875 -22.769531 19.296875 -18.8125 C 21.679688 -14.851562 24.578125 -11.347656 27.984375 -8.296875 C 31.398438 -5.253906 35.195312 -3.09375 39.375 -1.8125 C 43.550781 -0.53125 47.953125 -0.515625 52.578125 -1.765625 C 57.265625 -3.003906 61.109375 -5.21875 64.109375 -8.40625 C 67.117188 -11.601562 69.359375 -15.363281 70.828125 -19.6875 C 72.296875 -24.007812 73.101562 -28.515625 73.25 -33.203125 C 73.394531 -37.898438 72.914062 -42.335938 71.8125 -46.515625 C 70.71875 -50.773438 68.957031 -54.898438 66.53125 -58.890625 C 64.113281 -62.890625 61.203125 -66.390625 57.796875 -69.390625 C 54.390625 -72.398438 50.59375 -74.53125 46.40625 -75.78125 C 42.226562 -77.03125 37.757812 -76.992188 33 -75.671875 Z M 33 -75.671875 "/></g></g></g></g></g></svg>